<?xml version="1.0" encoding="UTF-8"?>
<svg width="32px" height="22px" viewBox="0 0 32 22" version="1.1" xmlns="http://www.w3.org/2000/svg" xmlns:xlink="http://www.w3.org/1999/xlink">
    <!-- Generator: Sketch 52.5 (67469) - http://www.bohemiancoding.com/sketch -->
    <title>CompaniesIcon_giftcards Copy</title>
    <desc>Created with Sketch.</desc>
    <g id="Page-1" stroke="none" stroke-width="1" fill="none" fill-rule="evenodd" stroke-linecap="round" stroke-linejoin="round">
        <g id="CompaniesIcon_giftcards-Copy" transform="translate(1.000000, 1.000000)" stroke="#F08B1E">
            <rect id="Rectangle" x="0" y="0" width="30" height="20" rx="3"></rect>
            <path d="M9.5,0 L9.5,20" id="Path"></path>
            <path d="M0,7.14285714 L29,7.14285714" id="Path"></path>
            <path d="M10,7.22524965 C9.00598728,7.1825128 8.08517429,6.71847314 7.493004,5.96186002 C7.493004,5.96186002 4.55909202,2.52406512 3.17842756,4.75003732 C2.90023573,5.37986869 2.94943508,6.09656825 3.31139838,6.68705746 C3.67336169,7.27754667 4.30641242,7.67383648 5.02234128,7.75810786 C5.24488259,7.80967478 8.31958602,7.97297004 10,7.22524965 Z" id="Path"></path>
            <path d="M10,7.72393584 C10.8965817,7.40626345 11.6013515,6.7013891 11.9176714,5.8059801 C11.9176714,5.8059801 13.5626265,1.69360654 15.4802979,3.42581431 C15.9256848,3.95155808 16.098012,4.65540326 15.9457438,5.32685978 C15.7934755,5.9983163 15.3342632,6.55954745 14.7054375,6.84271294 C14.514969,6.9420665 11.7531759,7.97015989 10,7.72393584 Z" id="Path"></path>
            <path d="M11,7.61904762 C11,7.61904762 14.0769231,7.67331434 14.7582418,9.5473251 C14.7582418,9.5473251 15.2945055,11.3236558 17,11.4285714" id="Path"></path>
            <path d="M10,6.66666667 C10,6.66666667 7.32929293,7.56294569 7.34141414,9.75700429 C7.34141414,9.75700429 7.45858586,11.8050627 6,12.3809524" id="Path"></path>
        </g>
    </g>
</svg>